<svg xmlns="http://www.w3.org/2000/svg" xmlns:xlink="http://www.w3.org/1999/xlink" width="780" height="211.97"><rect width="780" height="211.97" rx="5" ry="5" class="a"/><svg y="0%" x="0%"><circle cx="20" cy="20" r="6" fill="#ff5f58"/><circle cx="40" cy="20" r="6" fill="#ffbd2e"/><circle cx="60" cy="20" r="6" fill="#18c132"/></svg><svg height="151.97" viewBox="0 0 74 15.197" width="740" x="15" xmlns="http://www.w3.org/2000/svg" xmlns:xlink="http://www.w3.org/1999/xlink" y="50"><style>@keyframes n{0%{transform:translateX(0)}8.2%{transform:translateX(-222px)}8.5%{transform:translateX(-444px)}21.4%{transform:translateX(-592px)}23.5%{transform:translateX(-666px)}24.7%{transform:translateX(-740px)}26.2%{transform:translateX(-814px)}26.9%{transform:translateX(-888px)}30.3%{transform:translateX(-1110px)}34.9%{transform:translateX(-1258px)}38.1%{transform:translateX(-1480px)}41%{transform:translateX(-1628px)}43.8%{transform:translateX(-1850px)}47%{transform:translateX(-1998px)}49.9%{transform:translateX(-2146px)}52.9%{transform:translateX(-2294px)}56.1%{transform:translateX(-2442px)}59.2%{transform:translateX(-2590px)}62.4%{transform:translateX(-2738px)}65.6%{transform:translateX(-2960px)}68.7%{transform:translateX(-3108px)}71.4%{transform:translateX(-3256px)}74.6%{transform:translateX(-3478px)}77.6%{transform:translateX(-3626px)}80.2%{transform:translateX(-3922px)}83.2%{transform:translateX(-4070px)}86.5%{transform:translateX(-4218px)}90%{transform:translateX(-4292px)}90.1%{transform:translateX(-4366px)}93.6%{transform:translateX(-4440px)}to{transform:translateX(-4514px)}}.a{fill:#282d35}.g{fill:#d290e4;white-space:pre}.h{fill:#a8cc8c}.h,.i{white-space:pre}.i,.j{fill:#b9c0cb}.k,.p{fill:#282d35;white-space:pre}.p{fill:#e88388;font-weight:700}</style><g font-family="Monaco,Consolas,Menlo,'Bitstream Vera Sans Mono','Powerline Symbols',monospace" font-size="1.67"><defs><symbol id="1"><text y="1.67" style="white-space:pre" fill="#71bef2">~/dev/orgs/denosaurs/tabtab</text></symbol><symbol id="2"><text y="1.67" class="g">λ</text></symbol><symbol id="3"><text y="1.67" class="g">λ</text><text x="2.004" y="1.67" class="h">hello</text></symbol><symbol id="4"><text y="1.67" class="i">someCommand</text><text x="18.036" y="1.67" class="i">--</text><text x="21.042" y="1.67" class="i">a</text><text x="23.046" y="1.67" class="i">comprehensive</text><text x="37.074" y="1.67" class="i">description</text><text x="49.098" y="1.67" class="i">of</text><text x="52.104" y="1.67" class="i">the</text><text x="56.112" y="1.67" class="i">command</text></symbol><symbol id="5"><text y="1.67" class="i">someOtherCommand</text><text x="18.036" y="1.67" class="i">--</text><text x="21.042" y="1.67" class="i">comprehensive</text><text x="35.07" y="1.67" class="i">description</text><text x="47.094" y="1.67" class="i">of</text><text x="50.1" y="1.67" class="i">the</text><text x="54.108" y="1.67" class="i">other</text><text x="60.12" y="1.67" class="i">command</text></symbol><symbol id="6"><text y="1.67" class="i">--help</text><text x="12.024" y="1.67" class="i">--loglevel</text><text x="24.048" y="1.67" class="i">--version</text><text x="36.072" y="1.67" class="i">anotherOne</text><text x="48.096" y="1.67" class="i">bar</text><text x="60.12" y="1.67" class="i">foo</text></symbol><symbol id="7"><text y="1.67" class="g">λ</text><text x="2.004" y="1.67" class="h">hello</text><text x="8.016" y="1.67" class="i">someCommand</text></symbol><symbol id="8"><path class="j" d="M0 0h63v2.171H0z"/><text y="1.67" class="k">someCommand -- a comprehensive description of the command</text></symbol><symbol id="9"><text y="1.67" class="g">λ</text><text x="2.004" y="1.67" class="h">hello</text><text x="8.016" y="1.67" class="i">someOtherCommand</text></symbol><symbol id="10"><path class="j" d="M0 0h74v2.171H0z"/><text y="1.67" class="k">someCommand -- a comprehensive description of the command</text></symbol><symbol id="11"><path class="j" d="M0 0h74v2.171H0z"/><text y="1.67" class="k">someOtherCommand -- comprehensive description of the other command</text></symbol><symbol id="12"><text y="1.67" class="g">λ</text><text x="2.004" y="1.67" class="h">hello</text><text x="8.016" y="1.67" class="i">--help</text></symbol><symbol id="13"><path class="j" d="M0 0h10v2.171H0z"/><text y="1.67" class="k">--help</text><text x="12.024" y="1.67" class="i">--loglevel</text><text x="24.048" y="1.67" class="i">--version</text><text x="36.072" y="1.67" class="i">anotherOne</text><text x="48.096" y="1.67" class="i">bar</text><text x="60.12" y="1.67" class="i">foo</text></symbol><symbol id="14"><text y="1.67" class="g">λ</text><text x="2.004" y="1.67" class="h">hello</text><text x="8.016" y="1.67" class="i">--loglevel</text></symbol><symbol id="15"><text y="1.67" class="i">--help</text><path class="j" d="M12.024 0h10v2.171h-10z"/><text x="12.024" y="1.67" class="k">--loglevel</text><text x="24.048" y="1.67" class="i">--version</text><text x="36.072" y="1.67" class="i">anotherOne</text><text x="48.096" y="1.67" class="i">bar</text><text x="60.12" y="1.67" class="i">foo</text></symbol><symbol id="16"><text y="1.67" class="g">λ</text><text x="2.004" y="1.67" class="h">hello</text><text x="8.016" y="1.67" class="i">--version</text></symbol><symbol id="17"><text y="1.67" class="i">--help</text><text x="12.024" y="1.67" class="i">--loglevel</text><path class="j" d="M24.048 0h10v2.171h-10z"/><text x="24.048" y="1.67" class="k">--version</text><text x="36.072" y="1.67" class="i">anotherOne</text><text x="48.096" y="1.67" class="i">bar</text><text x="60.12" y="1.67" class="i">foo</text></symbol><symbol id="18"><text y="1.67" class="g">λ</text><text x="2.004" y="1.67" class="h">hello</text><text x="8.016" y="1.67" class="i">anotherOne</text></symbol><symbol id="19"><text y="1.67" class="i">--help</text><text x="12.024" y="1.67" class="i">--loglevel</text><text x="24.048" y="1.67" class="i">--version</text><path class="j" d="M36.072 0h10v2.171h-10z"/><text x="36.072" y="1.67" class="k">anotherOne</text><text x="48.096" y="1.67" class="i">bar</text><text x="60.12" y="1.67" class="i">foo</text></symbol><symbol id="20"><text y="1.67" class="g">λ</text><text x="2.004" y="1.67" class="h">hello</text><text x="8.016" y="1.67" class="i">bar</text></symbol><symbol id="21"><text y="1.67" class="i">--help</text><text x="12.024" y="1.67" class="i">--loglevel</text><text x="24.048" y="1.67" class="i">--version</text><text x="36.072" y="1.67" class="i">anotherOne</text><path class="j" d="M48.096 0h10v2.171h-10z"/><text x="48.096" y="1.67" class="k">bar</text><text x="60.12" y="1.67" class="i">foo</text></symbol><symbol id="22"><text y="1.67" class="g">λ</text><text x="2.004" y="1.67" class="h">hello</text><text x="8.016" y="1.67" class="i">foo</text></symbol><symbol id="23"><text y="1.67" class="i">--help</text><text x="12.024" y="1.67" class="i">--loglevel</text><text x="24.048" y="1.67" class="i">--version</text><text x="36.072" y="1.67" class="i">anotherOne</text><text x="48.096" y="1.67" class="i">bar</text><path class="j" d="M60.12 0h10v2.171h-10z"/><text x="60.12" y="1.67" class="k">foo</text></symbol><symbol id="24"><text y="1.67" class="i">error</text><text x="9.018" y="1.67" class="i">info</text><text x="18.036" y="1.67" class="i">notice</text><text x="27.054" y="1.67" class="i">verbose</text><text x="36.072" y="1.67" class="i">warn</text></symbol><symbol id="25"><text y="1.67" class="g">λ</text><text x="2.004" y="1.67" class="h">hello</text><text x="8.016" y="1.67" class="i">--loglevel</text><text x="19.038" y="1.67" class="i">error</text></symbol><symbol id="26"><path class="j" d="M0 0h7v2.171H0z"/><text y="1.67" class="k">error</text><text x="9.018" y="1.67" class="i">info</text><text x="18.036" y="1.67" class="i">notice</text><text x="27.054" y="1.67" class="i">verbose</text><text x="36.072" y="1.67" class="i">warn</text></symbol><symbol id="27"><text y="1.67" class="g">λ</text><text x="2.004" y="1.67" class="h">hello</text><text x="8.016" y="1.67" class="i">--loglevel</text><text x="19.038" y="1.67" class="i">info</text></symbol><symbol id="28"><text y="1.67" class="i">error</text><path class="j" d="M9.018 0h7v2.171h-7z"/><text x="9.018" y="1.67" class="k">info</text><text x="18.036" y="1.67" class="i">notice</text><text x="27.054" y="1.67" class="i">verbose</text><text x="36.072" y="1.67" class="i">warn</text></symbol><symbol id="29"><text y="1.67" class="g">λ</text><text x="2.004" y="1.67" class="h">hello</text><text x="8.016" y="1.67" class="i">--loglevel</text><text x="19.038" y="1.67" class="i">notice</text></symbol><symbol id="30"><text y="1.67" class="i">error</text><text x="9.018" y="1.67" class="i">info</text><path class="j" d="M18.036 0h7v2.171h-7z"/><text x="18.036" y="1.67" class="k">notice</text><text x="27.054" y="1.67" class="i">verbose</text><text x="36.072" y="1.67" class="i">warn</text></symbol><symbol id="31"><text y="1.67" class="g">λ</text><text x="2.004" y="1.67" class="h">hello</text><text x="8.016" y="1.67" class="i">--loglevel</text><text x="19.038" y="1.67" class="i">verbose</text></symbol><symbol id="32"><text y="1.67" class="i">error</text><text x="9.018" y="1.67" class="i">info</text><text x="18.036" y="1.67" class="i">notice</text><path class="j" d="M27.054 0h7v2.171h-7z"/><text x="27.054" y="1.67" class="k">verbose</text><text x="36.072" y="1.67" class="i">warn</text></symbol><symbol id="33"><text y="1.67" class="g">λ</text><text x="2.004" y="1.67" class="h">hello</text><text x="8.016" y="1.67" class="i">--loglevel</text><text x="19.038" y="1.67" class="i">warn</text></symbol><symbol id="34"><text y="1.67" class="i">error</text><text x="9.018" y="1.67" class="i">info</text><text x="18.036" y="1.67" class="i">notice</text><text x="27.054" y="1.67" class="i">verbose</text><path class="j" d="M36.072 0h7v2.171h-7z"/><text x="36.072" y="1.67" class="k">warn</text></symbol><symbol id="a"><path fill="transparent" d="M0 0h74v8H0z"/></symbol><symbol id="b"><path fill="#6f7683" d="M0 0h1.102v2.171H0z"/></symbol></defs><path class="a" d="M0 0h74v15.197H0z"/><g style="animation-duration:15s;animation-iteration-count:infinite;animation-name:n;animation-timing-function:steps(1,end)"><svg width="4588"><svg><use xlink:href="#a"/><use xlink:href="#b" x="-.004"/></svg><svg x="74"><use xlink:href="#a"/><use xlink:href="#b" x="-.004"/></svg><svg x="148"><use xlink:href="#a"/><use xlink:href="#b" x="-.004" y="2.146"/></svg><svg x="222"><use xlink:href="#a"/><use xlink:href="#b" x="-.004" y="2.146"/></svg><svg x="296"><use xlink:href="#a"/><use xlink:href="#b" x="1.996" y="4.317"/><use xlink:href="#1" y="2.171"/><use xlink:href="#2" y="4.342"/></svg><svg x="370"><use xlink:href="#a"/><use xlink:href="#b" x="1.996" y="4.317"/><use xlink:href="#1" y="2.171"/><use xlink:href="#2" y="4.342"/></svg><svg x="444"><use xlink:href="#a"/><use xlink:href="#b" x="1.996" y="4.317"/><use xlink:href="#1" y="2.171"/><use xlink:href="#2" y="4.342"/></svg><svg x="518"><use xlink:href="#a"/><use xlink:href="#b" x="2.996" y="4.317"/><use xlink:href="#1" y="2.171"/><text y="6.012" class="g">λ</text><text x="2.004" y="6.012" class="h">h</text></svg><svg x="592"><use xlink:href="#a"/><use xlink:href="#b" x="3.996" y="4.317"/><use xlink:href="#1" y="2.171"/><text y="6.012" class="g">λ</text><text x="2.004" y="6.012" class="h">he</text></svg><svg x="666"><use xlink:href="#a"/><use xlink:href="#b" x="4.996" y="4.317"/><use xlink:href="#1" y="2.171"/><text y="6.012" class="g">λ</text><text x="2.004" y="6.012" class="p">hel</text></svg><svg x="740"><use xlink:href="#a"/><use xlink:href="#b" x="5.996" y="4.317"/><use xlink:href="#1" y="2.171"/><text y="6.012" class="g">λ</text><text x="2.004" y="6.012" class="p">hell</text></svg><svg x="814"><use xlink:href="#a"/><use xlink:href="#b" x="6.996" y="4.317"/><use xlink:href="#1" y="2.171"/><use xlink:href="#3" y="4.342"/></svg><svg x="888"><use xlink:href="#a"/><use xlink:href="#b" x="7.996" y="4.317"/><use xlink:href="#1" y="2.171"/><use xlink:href="#3" y="4.342"/></svg><svg x="962"><use xlink:href="#a"/><use xlink:href="#b" x="-.004" y="6.488"/><use xlink:href="#1" y="2.171"/><use xlink:href="#3" y="4.342"/></svg><svg x="1036"><use xlink:href="#a"/><use xlink:href="#b" x="7.996" y="4.317"/><use xlink:href="#1" y="2.171"/><use xlink:href="#3" y="4.342"/><use xlink:href="#4" y="6.513"/><use xlink:href="#5" y="8.684"/><use xlink:href="#6" y="10.855"/></svg><svg x="1110"><use xlink:href="#a"/><use xlink:href="#b" x="7.996" y="4.317"/><use xlink:href="#1" y="2.171"/><use xlink:href="#3" y="4.342"/><use xlink:href="#4" y="6.513"/><use xlink:href="#5" y="8.684"/><use xlink:href="#6" y="10.855"/></svg><svg x="1184"><use xlink:href="#a"/><use xlink:href="#b" x="-.004" y="6.488"/><use xlink:href="#1" y="2.171"/><use xlink:href="#7" y="4.342"/><use xlink:href="#4" y="6.513"/><use xlink:href="#5" y="8.684"/><use xlink:href="#6" y="10.855"/></svg><svg x="1258"><use xlink:href="#a"/><use xlink:href="#b" x="18.996" y="4.317"/><use xlink:href="#1" y="2.171"/><use xlink:href="#7" y="4.342"/><use xlink:href="#8" y="6.513"/><use xlink:href="#5" y="8.684"/><use xlink:href="#6" y="10.855"/></svg><svg x="1332"><use xlink:href="#a"/><use xlink:href="#b" x="-.004" y="6.488"/><use xlink:href="#1" y="2.171"/><use xlink:href="#7" y="4.342"/><use xlink:href="#8" y="6.513"/><use xlink:href="#5" y="8.684"/><use xlink:href="#6" y="10.855"/></svg><svg x="1406"><use xlink:href="#a"/><use xlink:href="#b" x="-.004" y="6.488"/><use xlink:href="#1" y="2.171"/><use xlink:href="#9" y="4.342"/><use xlink:href="#10" y="6.513"/><use xlink:href="#5" y="8.684"/><use xlink:href="#6" y="10.855"/></svg><svg x="1480"><use xlink:href="#a"/><use xlink:href="#b" x="23.996" y="4.317"/><use xlink:href="#1" y="2.171"/><use xlink:href="#9" y="4.342"/><use xlink:href="#4" y="6.513"/><use xlink:href="#11" y="8.684"/><use xlink:href="#6" y="10.855"/></svg><svg x="1554"><use xlink:href="#a"/><use xlink:href="#b" x="-.004" y="6.488"/><use xlink:href="#1" y="2.171"/><use xlink:href="#12" y="4.342"/><use xlink:href="#4" y="6.513"/><use xlink:href="#11" y="8.684"/><use xlink:href="#6" y="10.855"/></svg><svg x="1628"><use xlink:href="#a"/><use xlink:href="#b" x="13.996" y="4.317"/><use xlink:href="#1" y="2.171"/><use xlink:href="#12" y="4.342"/><use xlink:href="#4" y="6.513"/><use xlink:href="#5" y="8.684"/><use xlink:href="#13" y="10.855"/></svg><svg x="1702"><use xlink:href="#a"/><use xlink:href="#b" x="-.004" y="6.488"/><use xlink:href="#1" y="2.171"/><use xlink:href="#14" y="4.342"/><use xlink:href="#4" y="6.513"/><use xlink:href="#5" y="8.684"/><use xlink:href="#13" y="10.855"/></svg><svg x="1776"><use xlink:href="#a"/><use xlink:href="#b" x="1.996" y="4.317"/><use xlink:href="#1" y="2.171"/><use xlink:href="#14" y="4.342"/><use xlink:href="#4" y="6.513"/><use xlink:href="#5" y="8.684"/><use xlink:href="#15" y="10.855"/></svg><svg x="1850"><use xlink:href="#a"/><use xlink:href="#b" x="17.996" y="4.317"/><use xlink:href="#1" y="2.171"/><use xlink:href="#14" y="4.342"/><use xlink:href="#4" y="6.513"/><use xlink:href="#5" y="8.684"/><use xlink:href="#15" y="10.855"/></svg><svg x="1924"><use xlink:href="#a"/><use xlink:href="#b" x="-.004" y="6.488"/><use xlink:href="#1" y="2.171"/><use xlink:href="#16" y="4.342"/><use xlink:href="#4" y="6.513"/><use xlink:href="#5" y="8.684"/><use xlink:href="#15" y="10.855"/></svg><svg x="1998"><use xlink:href="#a"/><use xlink:href="#b" x="16.996" y="4.317"/><use xlink:href="#1" y="2.171"/><use xlink:href="#16" y="4.342"/><use xlink:href="#4" y="6.513"/><use xlink:href="#5" y="8.684"/><use xlink:href="#17" y="10.855"/></svg><svg x="2072"><use xlink:href="#a"/><use xlink:href="#b" x="-.004" y="6.488"/><use xlink:href="#1" y="2.171"/><use xlink:href="#18" y="4.342"/><use xlink:href="#4" y="6.513"/><use xlink:href="#5" y="8.684"/><use xlink:href="#17" y="10.855"/></svg><svg x="2146"><use xlink:href="#a"/><use xlink:href="#b" x="17.996" y="4.317"/><use xlink:href="#1" y="2.171"/><use xlink:href="#18" y="4.342"/><use xlink:href="#4" y="6.513"/><use xlink:href="#5" y="8.684"/><use xlink:href="#19" y="10.855"/></svg><svg x="2220"><use xlink:href="#a"/><use xlink:href="#b" x="-.004" y="6.488"/><use xlink:href="#1" y="2.171"/><use xlink:href="#20" y="4.342"/><use xlink:href="#4" y="6.513"/><use xlink:href="#5" y="8.684"/><use xlink:href="#19" y="10.855"/></svg><svg x="2294"><use xlink:href="#a"/><use xlink:href="#b" x="10.996" y="4.317"/><use xlink:href="#1" y="2.171"/><use xlink:href="#20" y="4.342"/><use xlink:href="#4" y="6.513"/><use xlink:href="#5" y="8.684"/><use xlink:href="#21" y="10.855"/></svg><svg x="2368"><use xlink:href="#a"/><use xlink:href="#b" x="-.004" y="6.488"/><use xlink:href="#1" y="2.171"/><use xlink:href="#22" y="4.342"/><use xlink:href="#4" y="6.513"/><use xlink:href="#5" y="8.684"/><use xlink:href="#21" y="10.855"/></svg><svg x="2442"><use xlink:href="#a"/><use xlink:href="#b" x="10.996" y="4.317"/><use xlink:href="#1" y="2.171"/><use xlink:href="#22" y="4.342"/><use xlink:href="#4" y="6.513"/><use xlink:href="#5" y="8.684"/><use xlink:href="#23" y="10.855"/></svg><svg x="2516"><use xlink:href="#a"/><use xlink:href="#b" x="-.004" y="6.488"/><use xlink:href="#1" y="2.171"/><use xlink:href="#7" y="4.342"/><use xlink:href="#4" y="6.513"/><use xlink:href="#5" y="8.684"/><use xlink:href="#23" y="10.855"/></svg><svg x="2590"><use xlink:href="#a"/><use xlink:href="#b" x="18.996" y="4.317"/><use xlink:href="#1" y="2.171"/><use xlink:href="#7" y="4.342"/><use xlink:href="#10" y="6.513"/><use xlink:href="#5" y="8.684"/><use xlink:href="#6" y="10.855"/></svg><svg x="2664"><use xlink:href="#a"/><use xlink:href="#b" x="-.004" y="6.488"/><use xlink:href="#1" y="2.171"/><use xlink:href="#9" y="4.342"/><use xlink:href="#10" y="6.513"/><use xlink:href="#5" y="8.684"/><use xlink:href="#6" y="10.855"/></svg><svg x="2738"><use xlink:href="#a"/><use xlink:href="#b" x="23.996" y="4.317"/><use xlink:href="#1" y="2.171"/><use xlink:href="#9" y="4.342"/><use xlink:href="#4" y="6.513"/><use xlink:href="#11" y="8.684"/><use xlink:href="#6" y="10.855"/></svg><svg x="2812"><use xlink:href="#a"/><use xlink:href="#b" x="-.004" y="6.488"/><use xlink:href="#1" y="2.171"/><use xlink:href="#12" y="4.342"/><use xlink:href="#4" y="6.513"/><use xlink:href="#11" y="8.684"/><use xlink:href="#6" y="10.855"/></svg><svg x="2886"><use xlink:href="#a"/><use xlink:href="#b" x="1.996" y="4.317"/><use xlink:href="#1" y="2.171"/><use xlink:href="#12" y="4.342"/><use xlink:href="#4" y="6.513"/><use xlink:href="#5" y="8.684"/><use xlink:href="#13" y="10.855"/></svg><svg x="2960"><use xlink:href="#a"/><use xlink:href="#b" x="13.996" y="4.317"/><use xlink:href="#1" y="2.171"/><use xlink:href="#12" y="4.342"/><use xlink:href="#4" y="6.513"/><use xlink:href="#5" y="8.684"/><use xlink:href="#13" y="10.855"/></svg><svg x="3034"><use xlink:href="#a"/><use xlink:href="#b" x="-.004" y="6.488"/><use xlink:href="#1" y="2.171"/><use xlink:href="#14" y="4.342"/><use xlink:href="#4" y="6.513"/><use xlink:href="#5" y="8.684"/><use xlink:href="#13" y="10.855"/></svg><svg x="3108"><use xlink:href="#a"/><use xlink:href="#b" x="17.996" y="4.317"/><use xlink:href="#1" y="2.171"/><use xlink:href="#14" y="4.342"/><use xlink:href="#4" y="6.513"/><use xlink:href="#5" y="8.684"/><use xlink:href="#15" y="10.855"/></svg><svg x="3182"><use xlink:href="#a"/><use xlink:href="#b" x="18.996" y="4.317"/><use xlink:href="#1" y="2.171"/><use xlink:href="#14" y="4.342"/></svg><svg x="3256"><use xlink:href="#a"/><use xlink:href="#b" x="18.996" y="4.317"/><use xlink:href="#1" y="2.171"/><use xlink:href="#14" y="4.342"/></svg><svg x="3330"><use xlink:href="#a"/><use xlink:href="#b" x="-.004" y="6.488"/><use xlink:href="#1" y="2.171"/><use xlink:href="#14" y="4.342"/></svg><svg x="3404"><use xlink:href="#a"/><use xlink:href="#b" x="18.996" y="4.317"/><use xlink:href="#1" y="2.171"/><use xlink:href="#14" y="4.342"/><use xlink:href="#24" y="6.513"/></svg><svg x="3478"><use xlink:href="#a"/><use xlink:href="#b" x="18.996" y="4.317"/><use xlink:href="#1" y="2.171"/><use xlink:href="#14" y="4.342"/><use xlink:href="#24" y="6.513"/></svg><svg x="3552"><use xlink:href="#a"/><use xlink:href="#b" x="-.004" y="6.488"/><use xlink:href="#1" y="2.171"/><use xlink:href="#25" y="4.342"/><use xlink:href="#24" y="6.513"/></svg><svg x="3626"><use xlink:href="#a"/><use xlink:href="#b" x="23.996" y="4.317"/><use xlink:href="#1" y="2.171"/><use xlink:href="#25" y="4.342"/><use xlink:href="#26" y="6.513"/></svg><svg x="3700"><use xlink:href="#a"/><use xlink:href="#b" x="-.004" y="6.488"/><use xlink:href="#1" y="2.171"/><use xlink:href="#25" y="4.342"/><use xlink:href="#26" y="6.513"/></svg><svg x="3774"><use xlink:href="#a"/><use xlink:href="#b" x="23.996" y="4.317"/><use xlink:href="#1" y="2.171"/><use xlink:href="#25" y="4.342"/><use xlink:href="#26" y="6.513"/></svg><svg x="3848"><use xlink:href="#a"/><use xlink:href="#b" x="-.004" y="6.488"/><use xlink:href="#1" y="2.171"/><use xlink:href="#27" y="4.342"/><use xlink:href="#26" y="6.513"/></svg><svg x="3922"><use xlink:href="#a"/><use xlink:href="#b" x="22.996" y="4.317"/><use xlink:href="#1" y="2.171"/><use xlink:href="#27" y="4.342"/><use xlink:href="#28" y="6.513"/></svg><svg x="3996"><use xlink:href="#a"/><use xlink:href="#b" x="-.004" y="6.488"/><use xlink:href="#1" y="2.171"/><use xlink:href="#29" y="4.342"/><use xlink:href="#28" y="6.513"/></svg><svg x="4070"><use xlink:href="#a"/><use xlink:href="#b" x="24.996" y="4.317"/><use xlink:href="#1" y="2.171"/><use xlink:href="#29" y="4.342"/><use xlink:href="#30" y="6.513"/></svg><svg x="4144"><use xlink:href="#a"/><use xlink:href="#b" x="-.004" y="6.488"/><use xlink:href="#1" y="2.171"/><use xlink:href="#31" y="4.342"/><use xlink:href="#30" y="6.513"/></svg><svg x="4218"><use xlink:href="#a"/><use xlink:href="#b" x="25.996" y="4.317"/><use xlink:href="#1" y="2.171"/><use xlink:href="#31" y="4.342"/><use xlink:href="#32" y="6.513"/></svg><svg x="4292"><use xlink:href="#a"/><use xlink:href="#b" x="-.004" y="6.488"/><use xlink:href="#1" y="2.171"/><use xlink:href="#33" y="4.342"/><use xlink:href="#32" y="6.513"/></svg><svg x="4366"><use xlink:href="#a"/><use xlink:href="#b" x="22.996" y="4.317"/><use xlink:href="#1" y="2.171"/><use xlink:href="#33" y="4.342"/><use xlink:href="#34" y="6.513"/></svg><svg x="4440"><use xlink:href="#a"/><use xlink:href="#b" x="-.004" y="6.488"/><use xlink:href="#1" y="2.171"/><use xlink:href="#25" y="4.342"/><use xlink:href="#34" y="6.513"/></svg><svg x="4514"><use xlink:href="#a"/><use xlink:href="#b" x="-.004" y="8.659"/><use xlink:href="#1" y="2.171"/><use xlink:href="#25" y="4.342"/><use xlink:href="#34" y="6.513"/></svg></svg></g></g></svg></svg>